solid OpenSCAD_Model
  facet normal 0 0 -1
    outer loop
      vertex -12.5 0 0
      vertex -12.2268 2.5989 0
      vertex -12.2268 -2.5989 0
    endloop
  endfacet
  facet normal 0 0 -1
    outer loop
      vertex -12.2268 -2.5989 0
      vertex -12.2268 2.5989 0
      vertex -11.4193 5.08421 0
    endloop
  endfacet
  facet normal 0 0 -1
    outer loop
      vertex -12.2268 -2.5989 0
      vertex -11.4193 5.08421 0
      vertex -10.1127 7.34732 0
    endloop
  endfacet
  facet normal 0 0 -1
    outer loop
      vertex -12.2268 -2.5989 0
      vertex -10.1127 7.34732 0
      vertex -8.36413 9.28931 0
    endloop
  endfacet
  facet normal 0 0 -1
    outer loop
      vertex -12.2268 -2.5989 0
      vertex -8.36413 9.28931 0
      vertex -6.25 10.8253 0
    endloop
  endfacet
  facet normal 0 0 -1
    outer loop
      vertex -12.2268 -2.5989 0
      vertex -6.25 10.8253 0
      vertex -3.86271 11.8882 0
    endloop
  endfacet
  facet normal 0 0 -1
    outer loop
      vertex -12.2268 -2.5989 0
      vertex -3.86271 11.8882 0
      vertex -1.30661 12.4315 0
    endloop
  endfacet
  facet normal 0 0 -1
    outer loop
      vertex -12.2268 -2.5989 0
      vertex -1.30661 12.4315 0
      vertex 1.30661 12.4315 0
    endloop
  endfacet
  facet normal 0 0 -1
    outer loop
      vertex -12.2268 -2.5989 0
      vertex 1.30661 12.4315 0
      vertex 3.86271 11.8882 0
    endloop
  endfacet
  facet normal 0 0 -1
    outer loop
      vertex -12.2268 -2.5989 0
      vertex 3.86271 11.8882 0
      vertex 6.25 10.8253 0
    endloop
  endfacet
  facet normal 0 0 -1
    outer loop
      vertex -12.2268 -2.5989 0
      vertex 6.25 10.8253 0
      vertex 8.36413 9.28931 0
    endloop
  endfacet
  facet normal 0 0 -1
    outer loop
      vertex -12.2268 -2.5989 0
      vertex 8.36413 9.28931 0
      vertex 10.1127 7.34732 0
    endloop
  endfacet
  facet normal 0 0 -1
    outer loop
      vertex -12.2268 -2.5989 0
      vertex 10.1127 7.34732 0
      vertex 11.4193 5.08421 0
    endloop
  endfacet
  facet normal 0 0 -1
    outer loop
      vertex -12.2268 -2.5989 0
      vertex 11.4193 5.08421 0
      vertex 12.2268 2.5989 0
    endloop
  endfacet
  facet normal 0 0 -1
    outer loop
      vertex -12.2268 -2.5989 0
      vertex 12.2268 2.5989 0
      vertex 12.5 0 0
    endloop
  endfacet
  facet normal 0 0 -1
    outer loop
      vertex -12.2268 -2.5989 0
      vertex 12.5 0 0
      vertex 12.2268 -2.5989 0
    endloop
  endfacet
  facet normal 0 0 -1
    outer loop
      vertex -12.2268 -2.5989 0
      vertex 12.2268 -2.5989 0
      vertex 11.4193 -5.08421 0
    endloop
  endfacet
  facet normal 0 0 -1
    outer loop
      vertex -12.2268 -2.5989 0
      vertex 11.4193 -5.08421 0
      vertex 10.1127 -7.34732 0
    endloop
  endfacet
  facet normal 0 0 -1
    outer loop
      vertex -12.2268 -2.5989 0
      vertex 10.1127 -7.34732 0
      vertex 8.36413 -9.28931 0
    endloop
  endfacet
  facet normal 0 0 -1
    outer loop
      vertex -12.2268 -2.5989 0
      vertex 8.36413 -9.28931 0
      vertex 6.25 -10.8253 0
    endloop
  endfacet
  facet normal 0 0 -1
    outer loop
      vertex -12.2268 -2.5989 0
      vertex 6.25 -10.8253 0
      vertex 3.86271 -11.8882 0
    endloop
  endfacet
  facet normal 0 0 -1
    outer loop
      vertex -12.2268 -2.5989 0
      vertex 3.86271 -11.8882 0
      vertex 1.30661 -12.4315 0
    endloop
  endfacet
  facet normal 0 0 -1
    outer loop
      vertex -12.2268 -2.5989 0
      vertex 1.30661 -12.4315 0
      vertex -1.30661 -12.4315 0
    endloop
  endfacet
  facet normal 0 0 -1
    outer loop
      vertex -12.2268 -2.5989 0
      vertex -1.30661 -12.4315 0
      vertex -3.86271 -11.8882 0
    endloop
  endfacet
  facet normal 0 0 -1
    outer loop
      vertex -12.2268 -2.5989 0
      vertex -3.86271 -11.8882 0
      vertex -6.25 -10.8253 0
    endloop
  endfacet
  facet normal 0 0 -1
    outer loop
      vertex -12.2268 -2.5989 0
      vertex -6.25 -10.8253 0
      vertex -8.36413 -9.28931 0
    endloop
  endfacet
  facet normal 0 0 -1
    outer loop
      vertex -12.2268 -2.5989 0
      vertex -8.36413 -9.28931 0
      vertex -10.1127 -7.34732 0
    endloop
  endfacet
  facet normal 0 0 -1
    outer loop
      vertex -12.2268 -2.5989 0
      vertex -10.1127 -7.34732 0
      vertex -11.4193 -5.08421 0
    endloop
  endfacet
  facet normal -0.994522 0.104528 0
    outer loop
      vertex -12.5 0 0
      vertex -12.5 0 1
      vertex -12.2268 2.5989 0
    endloop
  endfacet
  facet normal -0.994522 0.104528 0
    outer loop
      vertex -12.2268 2.5989 0
      vertex -12.5 0 1
      vertex -12.2268 2.5989 1
    endloop
  endfacet
  facet normal -0.994522 -0.104528 0
    outer loop
      vertex -12.5 0 0
      vertex -12.2268 -2.5989 0
      vertex -12.5 0 1
    endloop
  endfacet
  facet normal -0.994522 -0.104528 0
    outer loop
      vertex -12.5 0 1
      vertex -12.2268 -2.5989 0
      vertex -12.2268 -2.5989 1
    endloop
  endfacet
  facet normal -0.951056 -0.309017 0
    outer loop
      vertex -12.2268 -2.5989 0
      vertex -11.4193 -5.08421 0
      vertex -12.2268 -2.5989 1
    endloop
  endfacet
  facet normal -0.951056 -0.309017 0
    outer loop
      vertex -12.2268 -2.5989 1
      vertex -11.4193 -5.08421 0
      vertex -11.4193 -5.08421 1
    endloop
  endfacet
  facet normal -0.866025 -0.5 0
    outer loop
      vertex -11.4193 -5.08421 0
      vertex -10.1127 -7.34732 0
      vertex -11.4193 -5.08421 1
    endloop
  endfacet
  facet normal -0.866025 -0.5 0
    outer loop
      vertex -11.4193 -5.08421 1
      vertex -10.1127 -7.34732 0
      vertex -10.1127 -7.34732 1
    endloop
  endfacet
  facet normal -0.743145 -0.669131 0
    outer loop
      vertex -10.1127 -7.34732 0
      vertex -8.36413 -9.28931 0
      vertex -10.1127 -7.34732 1
    endloop
  endfacet
  facet normal -0.743145 -0.669131 0
    outer loop
      vertex -10.1127 -7.34732 1
      vertex -8.36413 -9.28931 0
      vertex -8.36413 -9.28931 1
    endloop
  endfacet
  facet normal -0.587785 -0.809017 0
    outer loop
      vertex -8.36413 -9.28931 1
      vertex -8.36413 -9.28931 0
      vertex -6.25 -10.8253 0
    endloop
  endfacet
  facet normal -0.587785 -0.809017 0
    outer loop
      vertex -6.25 -10.8253 1
      vertex -8.36413 -9.28931 1
      vertex -6.25 -10.8253 0
    endloop
  endfacet
  facet normal -0.406736 -0.913546 0
    outer loop
      vertex -6.25 -10.8253 1
      vertex -6.25 -10.8253 0
      vertex -3.86271 -11.8882 0
    endloop
  endfacet
  facet normal -0.406736 -0.913546 0
    outer loop
      vertex -3.86271 -11.8882 1
      vertex -6.25 -10.8253 1
      vertex -3.86271 -11.8882 0
    endloop
  endfacet
  facet normal -0.207912 -0.978148 0
    outer loop
      vertex -3.86271 -11.8882 1
      vertex -3.86271 -11.8882 0
      vertex -1.30661 -12.4315 0
    endloop
  endfacet
  facet normal -0.207912 -0.978148 0
    outer loop
      vertex -1.30661 -12.4315 1
      vertex -3.86271 -11.8882 1
      vertex -1.30661 -12.4315 0
    endloop
  endfacet
  facet normal 0 -1 0
    outer loop
      vertex -1.30661 -12.4315 1
      vertex -1.30661 -12.4315 0
      vertex 1.30661 -12.4315 0
    endloop
  endfacet
  facet normal 0 -1 0
    outer loop
      vertex 1.30661 -12.4315 1
      vertex -1.30661 -12.4315 1
      vertex 1.30661 -12.4315 0
    endloop
  endfacet
  facet normal 0.207912 -0.978148 0
    outer loop
      vertex 1.30661 -12.4315 1
      vertex 1.30661 -12.4315 0
      vertex 3.86271 -11.8882 0
    endloop
  endfacet
  facet normal 0.207912 -0.978148 0
    outer loop
      vertex 3.86271 -11.8882 1
      vertex 1.30661 -12.4315 1
      vertex 3.86271 -11.8882 0
    endloop
  endfacet
  facet normal 0.406736 -0.913546 0
    outer loop
      vertex 3.86271 -11.8882 1
      vertex 3.86271 -11.8882 0
      vertex 6.25 -10.8253 0
    endloop
  endfacet
  facet normal 0.406736 -0.913546 0
    outer loop
      vertex 6.25 -10.8253 1
      vertex 3.86271 -11.8882 1
      vertex 6.25 -10.8253 0
    endloop
  endfacet
  facet normal 0.587785 -0.809017 0
    outer loop
      vertex 6.25 -10.8253 1
      vertex 6.25 -10.8253 0
      vertex 8.36413 -9.28931 0
    endloop
  endfacet
  facet normal 0.587785 -0.809017 0
    outer loop
      vertex 8.36413 -9.28931 1
      vertex 6.25 -10.8253 1
      vertex 8.36413 -9.28931 0
    endloop
  endfacet
  facet normal 0.743145 -0.669131 0
    outer loop
      vertex 8.36413 -9.28931 1
      vertex 8.36413 -9.28931 0
      vertex 10.1127 -7.34732 0
    endloop
  endfacet
  facet normal 0.743145 -0.669131 0
    outer loop
      vertex 10.1127 -7.34732 1
      vertex 8.36413 -9.28931 1
      vertex 10.1127 -7.34732 0
    endloop
  endfacet
  facet normal 0.866025 -0.5 0
    outer loop
      vertex 10.1127 -7.34732 1
      vertex 10.1127 -7.34732 0
      vertex 11.4193 -5.08421 0
    endloop
  endfacet
  facet normal 0.866025 -0.5 0
    outer loop
      vertex 11.4193 -5.08421 1
      vertex 10.1127 -7.34732 1
      vertex 11.4193 -5.08421 0
    endloop
  endfacet
  facet normal 0.951056 -0.309017 0
    outer loop
      vertex 11.4193 -5.08421 1
      vertex 11.4193 -5.08421 0
      vertex 12.2268 -2.5989 0
    endloop
  endfacet
  facet normal 0.951056 -0.309017 0
    outer loop
      vertex 12.2268 -2.5989 1
      vertex 11.4193 -5.08421 1
      vertex 12.2268 -2.5989 0
    endloop
  endfacet
  facet normal 0.994522 -0.104528 0
    outer loop
      vertex 12.2268 -2.5989 1
      vertex 12.2268 -2.5989 0
      vertex 12.5 0 0
    endloop
  endfacet
  facet normal 0.994522 -0.104528 0
    outer loop
      vertex 12.5 0 1
      vertex 12.2268 -2.5989 1
      vertex 12.5 0 0
    endloop
  endfacet
  facet normal 0.994522 0.104528 0
    outer loop
      vertex 12.5 0 0
      vertex 12.2268 2.5989 0
      vertex 12.2268 2.5989 1
    endloop
  endfacet
  facet normal 0.994522 0.104528 0
    outer loop
      vertex 12.5 0 1
      vertex 12.5 0 0
      vertex 12.2268 2.5989 1
    endloop
  endfacet
  facet normal 0.951056 0.309017 0
    outer loop
      vertex 12.2268 2.5989 0
      vertex 11.4193 5.08421 0
      vertex 11.4193 5.08421 1
    endloop
  endfacet
  facet normal 0.951056 0.309017 0
    outer loop
      vertex 12.2268 2.5989 1
      vertex 12.2268 2.5989 0
      vertex 11.4193 5.08421 1
    endloop
  endfacet
  facet normal 0.866025 0.5 0
    outer loop
      vertex 11.4193 5.08421 0
      vertex 10.1127 7.34732 0
      vertex 10.1127 7.34732 1
    endloop
  endfacet
  facet normal 0.866025 0.5 0
    outer loop
      vertex 11.4193 5.08421 1
      vertex 11.4193 5.08421 0
      vertex 10.1127 7.34732 1
    endloop
  endfacet
  facet normal 0.743145 0.669131 0
    outer loop
      vertex 10.1127 7.34732 0
      vertex 8.36413 9.28931 0
      vertex 8.36413 9.28931 1
    endloop
  endfacet
  facet normal 0.743145 0.669131 0
    outer loop
      vertex 10.1127 7.34732 1
      vertex 10.1127 7.34732 0
      vertex 8.36413 9.28931 1
    endloop
  endfacet
  facet normal 0.587785 0.809017 0
    outer loop
      vertex 6.25 10.8253 0
      vertex 6.25 10.8253 1
      vertex 8.36413 9.28931 0
    endloop
  endfacet
  facet normal 0.587785 0.809017 0
    outer loop
      vertex 8.36413 9.28931 0
      vertex 6.25 10.8253 1
      vertex 8.36413 9.28931 1
    endloop
  endfacet
  facet normal 0.406736 0.913546 0
    outer loop
      vertex 3.86271 11.8882 0
      vertex 3.86271 11.8882 1
      vertex 6.25 10.8253 0
    endloop
  endfacet
  facet normal 0.406736 0.913546 0
    outer loop
      vertex 6.25 10.8253 0
      vertex 3.86271 11.8882 1
      vertex 6.25 10.8253 1
    endloop
  endfacet
  facet normal 0.207912 0.978148 0
    outer loop
      vertex 1.30661 12.4315 0
      vertex 1.30661 12.4315 1
      vertex 3.86271 11.8882 0
    endloop
  endfacet
  facet normal 0.207912 0.978148 0
    outer loop
      vertex 3.86271 11.8882 0
      vertex 1.30661 12.4315 1
      vertex 3.86271 11.8882 1
    endloop
  endfacet
  facet normal 0 1 0
    outer loop
      vertex -1.30661 12.4315 0
      vertex -1.30661 12.4315 1
      vertex 1.30661 12.4315 0
    endloop
  endfacet
  facet normal 0 1 0
    outer loop
      vertex 1.30661 12.4315 0
      vertex -1.30661 12.4315 1
      vertex 1.30661 12.4315 1
    endloop
  endfacet
  facet normal -0.207912 0.978148 0
    outer loop
      vertex -3.86271 11.8882 0
      vertex -3.86271 11.8882 1
      vertex -1.30661 12.4315 0
    endloop
  endfacet
  facet normal -0.207912 0.978148 0
    outer loop
      vertex -1.30661 12.4315 0
      vertex -3.86271 11.8882 1
      vertex -1.30661 12.4315 1
    endloop
  endfacet
  facet normal -0.406736 0.913546 0
    outer loop
      vertex -6.25 10.8253 0
      vertex -6.25 10.8253 1
      vertex -3.86271 11.8882 0
    endloop
  endfacet
  facet normal -0.406736 0.913546 0
    outer loop
      vertex -3.86271 11.8882 0
      vertex -6.25 10.8253 1
      vertex -3.86271 11.8882 1
    endloop
  endfacet
  facet normal -0.587785 0.809017 0
    outer loop
      vertex -8.36413 9.28931 0
      vertex -8.36413 9.28931 1
      vertex -6.25 10.8253 0
    endloop
  endfacet
  facet normal -0.587785 0.809017 0
    outer loop
      vertex -6.25 10.8253 0
      vertex -8.36413 9.28931 1
      vertex -6.25 10.8253 1
    endloop
  endfacet
  facet normal -0.743145 0.669131 0
    outer loop
      vertex -10.1127 7.34732 0
      vertex -10.1127 7.34732 1
      vertex -8.36413 9.28931 0
    endloop
  endfacet
  facet normal -0.743145 0.669131 0
    outer loop
      vertex -8.36413 9.28931 0
      vertex -10.1127 7.34732 1
      vertex -8.36413 9.28931 1
    endloop
  endfacet
  facet normal -0.866025 0.5 0
    outer loop
      vertex -11.4193 5.08421 0
      vertex -11.4193 5.08421 1
      vertex -10.1127 7.34732 0
    endloop
  endfacet
  facet normal -0.866025 0.5 0
    outer loop
      vertex -10.1127 7.34732 0
      vertex -11.4193 5.08421 1
      vertex -10.1127 7.34732 1
    endloop
  endfacet
  facet normal -0.951056 0.309017 0
    outer loop
      vertex -12.2268 2.5989 0
      vertex -12.2268 2.5989 1
      vertex -11.4193 5.08421 0
    endloop
  endfacet
  facet normal -0.951056 0.309017 0
    outer loop
      vertex -11.4193 5.08421 0
      vertex -12.2268 2.5989 1
      vertex -11.4193 5.08421 1
    endloop
  endfacet
  facet normal 0 0 1
    outer loop
      vertex -12.2268 2.5989 1
      vertex -12.5 0 1
      vertex -12.2268 -2.5989 1
    endloop
  endfacet
  facet normal 0 0 1
    outer loop
      vertex -10.1127 -7.34732 1
      vertex -12.2268 2.5989 1
      vertex -11.4193 -5.08421 1
    endloop
  endfacet
  facet normal 0 0 1
    outer loop
      vertex -11.4193 -5.08421 1
      vertex -12.2268 2.5989 1
      vertex -12.2268 -2.5989 1
    endloop
  endfacet
  facet normal 0 0 1
    outer loop
      vertex -8.36413 -9.28931 1
      vertex -12.2268 2.5989 1
      vertex -10.1127 -7.34732 1
    endloop
  endfacet
  facet normal 0 0 1
    outer loop
      vertex -6.25 -10.8253 1
      vertex -12.2268 2.5989 1
      vertex -8.36413 -9.28931 1
    endloop
  endfacet
  facet normal 0 0 1
    outer loop
      vertex -3.86271 -11.8882 1
      vertex -12.2268 2.5989 1
      vertex -6.25 -10.8253 1
    endloop
  endfacet
  facet normal 0 0 1
    outer loop
      vertex -1.30661 -12.4315 1
      vertex -12.2268 2.5989 1
      vertex -3.86271 -11.8882 1
    endloop
  endfacet
  facet normal 0 0 1
    outer loop
      vertex -5.98809 -5.30498 1
      vertex -12.2268 2.5989 1
      vertex -1.30661 -12.4315 1
    endloop
  endfacet
  facet normal 0 0 1
    outer loop
      vertex -7.76753 1.91452 1
      vertex -7.08365 3.71778 1
      vertex -12.2268 2.5989 1
    endloop
  endfacet
  facet normal 0 0 1
    outer loop
      vertex 4.54452 -6.58387 1
      vertex 2.83684 -7.48013 1
      vertex 8.36413 -9.28931 1
    endloop
  endfacet
  facet normal 0 0 1
    outer loop
      vertex -7.08365 3.71778 1
      vertex -5.98809 5.30498 1
      vertex -12.2268 2.5989 1
    endloop
  endfacet
  facet normal 0 0 1
    outer loop
      vertex 0.964293 7.94167 1
      vertex 2.83684 7.48013 1
      vertex 8.36413 9.28931 1
    endloop
  endfacet
  facet normal 0 0 1
    outer loop
      vertex -2.83684 7.48013 1
      vertex -0.964293 7.94167 1
      vertex 6.25 10.8253 1
    endloop
  endfacet
  facet normal 0 0 1
    outer loop
      vertex 1.30661 12.4315 1
      vertex -12.2268 2.5989 1
      vertex 3.86271 11.8882 1
    endloop
  endfacet
  facet normal 0 0 1
    outer loop
      vertex -1.30661 12.4315 1
      vertex -12.2268 2.5989 1
      vertex 1.30661 12.4315 1
    endloop
  endfacet
  facet normal 0 0 1
    outer loop
      vertex -3.86271 11.8882 1
      vertex -12.2268 2.5989 1
      vertex -1.30661 12.4315 1
    endloop
  endfacet
  facet normal 0 0 1
    outer loop
      vertex -6.25 10.8253 1
      vertex -12.2268 2.5989 1
      vertex -3.86271 11.8882 1
    endloop
  endfacet
  facet normal 0 0 1
    outer loop
      vertex -8.36413 9.28931 1
      vertex -12.2268 2.5989 1
      vertex -6.25 10.8253 1
    endloop
  endfacet
  facet normal 0 0 1
    outer loop
      vertex -10.1127 7.34732 1
      vertex -12.2268 2.5989 1
      vertex -8.36413 9.28931 1
    endloop
  endfacet
  facet normal 0 0 1
    outer loop
      vertex -11.4193 5.08421 1
      vertex -12.2268 2.5989 1
      vertex -10.1127 7.34732 1
    endloop
  endfacet
  facet normal 0 0 1
    outer loop
      vertex 7.76753 -1.91452 1
      vertex 7.08365 -3.71778 1
      vertex 11.4193 -5.08421 1
    endloop
  endfacet
  facet normal 0 0 1
    outer loop
      vertex 5.98809 5.30498 1
      vertex 7.08365 3.71778 1
      vertex 11.4193 5.08421 1
    endloop
  endfacet
  facet normal 0 0 1
    outer loop
      vertex -5.98809 5.30498 1
      vertex -4.54452 6.58387 1
      vertex -12.2268 2.5989 1
    endloop
  endfacet
  facet normal 0 0 1
    outer loop
      vertex 2.83684 7.48013 1
      vertex 4.54452 6.58387 1
      vertex 8.36413 9.28931 1
    endloop
  endfacet
  facet normal 0 0 1
    outer loop
      vertex 7.76753 1.91452 1
      vertex 8 0 1
      vertex 12.5 0 1
    endloop
  endfacet
  facet normal 0 0 1
    outer loop
      vertex -0.964293 7.94167 1
      vertex 0.964293 7.94167 1
      vertex 6.25 10.8253 1
    endloop
  endfacet
  facet normal 0 0 1
    outer loop
      vertex 3.86271 11.8882 1
      vertex -12.2268 2.5989 1
      vertex -4.54452 6.58387 1
    endloop
  endfacet
  facet normal 0 0 1
    outer loop
      vertex 3.86271 11.8882 1
      vertex -2.83684 7.48013 1
      vertex 6.25 10.8253 1
    endloop
  endfacet
  facet normal 0 0 1
    outer loop
      vertex 3.86271 11.8882 1
      vertex -4.54452 6.58387 1
      vertex -2.83684 7.48013 1
    endloop
  endfacet
  facet normal 0 0 1
    outer loop
      vertex 6.25 10.8253 1
      vertex 0.964293 7.94167 1
      vertex 8.36413 9.28931 1
    endloop
  endfacet
  facet normal 0 0 1
    outer loop
      vertex 4.54452 6.58387 1
      vertex 5.98809 5.30498 1
      vertex 10.1127 7.34732 1
    endloop
  endfacet
  facet normal 0 0 1
    outer loop
      vertex 8.36413 9.28931 1
      vertex 4.54452 6.58387 1
      vertex 10.1127 7.34732 1
    endloop
  endfacet
  facet normal 0 0 1
    outer loop
      vertex 10.1127 7.34732 1
      vertex 5.98809 5.30498 1
      vertex 11.4193 5.08421 1
    endloop
  endfacet
  facet normal 0 0 1
    outer loop
      vertex 11.4193 5.08421 1
      vertex 7.08365 3.71778 1
      vertex 12.2268 2.5989 1
    endloop
  endfacet
  facet normal 0 0 1
    outer loop
      vertex 12.2268 2.5989 1
      vertex 7.76753 1.91452 1
      vertex 12.5 0 1
    endloop
  endfacet
  facet normal 0 0 1
    outer loop
      vertex 12.5 0 1
      vertex 8 0 1
      vertex 12.2268 -2.5989 1
    endloop
  endfacet
  facet normal 0 0 1
    outer loop
      vertex 12.2268 -2.5989 1
      vertex 7.76753 -1.91452 1
      vertex 11.4193 -5.08421 1
    endloop
  endfacet
  facet normal 0 0 1
    outer loop
      vertex 7.08365 3.71778 1
      vertex 7.76753 1.91452 1
      vertex 12.2268 2.5989 1
    endloop
  endfacet
  facet normal 0 0 1
    outer loop
      vertex 11.4193 -5.08421 1
      vertex 7.08365 -3.71778 1
      vertex 10.1127 -7.34732 1
    endloop
  endfacet
  facet normal 0 0 1
    outer loop
      vertex 7.08365 -3.71778 1
      vertex 5.98809 -5.30498 1
      vertex 10.1127 -7.34732 1
    endloop
  endfacet
  facet normal 0 0 1
    outer loop
      vertex 10.1127 -7.34732 1
      vertex 4.54452 -6.58387 1
      vertex 8.36413 -9.28931 1
    endloop
  endfacet
  facet normal 0 0 1
    outer loop
      vertex 8 0 1
      vertex 7.76753 -1.91452 1
      vertex 12.2268 -2.5989 1
    endloop
  endfacet
  facet normal 0 0 1
    outer loop
      vertex 8.36413 -9.28931 1
      vertex 2.83684 -7.48013 1
      vertex 6.25 -10.8253 1
    endloop
  endfacet
  facet normal 0 0 1
    outer loop
      vertex 6.25 -10.8253 1
      vertex 0.964293 -7.94167 1
      vertex 3.86271 -11.8882 1
    endloop
  endfacet
  facet normal 0 0 1
    outer loop
      vertex 3.86271 -11.8882 1
      vertex -0.964293 -7.94167 1
      vertex 1.30661 -12.4315 1
    endloop
  endfacet
  facet normal 0 0 1
    outer loop
      vertex -0.964293 -7.94167 1
      vertex -2.83684 -7.48013 1
      vertex 1.30661 -12.4315 1
    endloop
  endfacet
  facet normal 0 0 1
    outer loop
      vertex 1.30661 -12.4315 1
      vertex -4.54452 -6.58387 1
      vertex -1.30661 -12.4315 1
    endloop
  endfacet
  facet normal 0 0 1
    outer loop
      vertex -4.54452 -6.58387 1
      vertex -5.98809 -5.30498 1
      vertex -1.30661 -12.4315 1
    endloop
  endfacet
  facet normal 0 0 1
    outer loop
      vertex -7.08365 -3.71778 1
      vertex -12.2268 2.5989 1
      vertex -5.98809 -5.30498 1
    endloop
  endfacet
  facet normal 0 0 1
    outer loop
      vertex -2.83684 -7.48013 1
      vertex -4.54452 -6.58387 1
      vertex 1.30661 -12.4315 1
    endloop
  endfacet
  facet normal 0 0 1
    outer loop
      vertex -7.08365 -3.71778 1
      vertex -7.76753 -1.91452 1
      vertex -12.2268 2.5989 1
    endloop
  endfacet
  facet normal 0 0 1
    outer loop
      vertex -7.76753 -1.91452 1
      vertex -8 0 1
      vertex -12.2268 2.5989 1
    endloop
  endfacet
  facet normal 0 0 1
    outer loop
      vertex 5.98809 -5.30498 1
      vertex 4.54452 -6.58387 1
      vertex 10.1127 -7.34732 1
    endloop
  endfacet
  facet normal 0 0 1
    outer loop
      vertex 0.964293 -7.94167 1
      vertex -0.964293 -7.94167 1
      vertex 3.86271 -11.8882 1
    endloop
  endfacet
  facet normal 0 0 1
    outer loop
      vertex 2.83684 -7.48013 1
      vertex 0.964293 -7.94167 1
      vertex 6.25 -10.8253 1
    endloop
  endfacet
  facet normal 0 0 1
    outer loop
      vertex -8 0 1
      vertex -7.76753 1.91452 1
      vertex -12.2268 2.5989 1
    endloop
  endfacet
  facet normal -0.992709 -0.120536 0
    outer loop
      vertex -8 0 1
      vertex -7.76753 -1.91452 1
      vertex -8 0 9
    endloop
  endfacet
  facet normal -0.992709 -0.120536 0
    outer loop
      vertex -8 0 9
      vertex -7.76753 -1.91452 1
      vertex -7.76753 -1.91452 9
    endloop
  endfacet
  facet normal -0.935016 -0.354605 0
    outer loop
      vertex -7.76753 -1.91452 1
      vertex -7.08365 -3.71778 1
      vertex -7.76753 -1.91452 9
    endloop
  endfacet
  facet normal -0.935016 -0.354605 0
    outer loop
      vertex -7.76753 -1.91452 9
      vertex -7.08365 -3.71778 1
      vertex -7.08365 -3.71778 9
    endloop
  endfacet
  facet normal -0.822984 -0.568065 0
    outer loop
      vertex -7.08365 -3.71778 1
      vertex -5.98809 -5.30498 1
      vertex -7.08365 -3.71778 9
    endloop
  endfacet
  facet normal -0.822984 -0.568065 0
    outer loop
      vertex -7.08365 -3.71778 9
      vertex -5.98809 -5.30498 1
      vertex -5.98809 -5.30498 9
    endloop
  endfacet
  facet normal -0.663123 -0.748511 0
    outer loop
      vertex -5.98809 -5.30498 9
      vertex -5.98809 -5.30498 1
      vertex -4.54452 -6.58387 1
    endloop
  endfacet
  facet normal -0.663123 -0.748511 0
    outer loop
      vertex -4.54452 -6.58387 9
      vertex -5.98809 -5.30498 9
      vertex -4.54452 -6.58387 1
    endloop
  endfacet
  facet normal -0.464723 -0.885456 0
    outer loop
      vertex -4.54452 -6.58387 9
      vertex -4.54452 -6.58387 1
      vertex -2.83684 -7.48013 1
    endloop
  endfacet
  facet normal -0.464723 -0.885456 0
    outer loop
      vertex -2.83684 -7.48013 9
      vertex -4.54452 -6.58387 9
      vertex -2.83684 -7.48013 1
    endloop
  endfacet
  facet normal -0.239316 -0.970942 0
    outer loop
      vertex -2.83684 -7.48013 9
      vertex -2.83684 -7.48013 1
      vertex -0.964293 -7.94167 1
    endloop
  endfacet
  facet normal -0.239316 -0.970942 0
    outer loop
      vertex -0.964293 -7.94167 9
      vertex -2.83684 -7.48013 9
      vertex -0.964293 -7.94167 1
    endloop
  endfacet
  facet normal 0 -1 0
    outer loop
      vertex -0.964293 -7.94167 9
      vertex -0.964293 -7.94167 1
      vertex 0.964293 -7.94167 1
    endloop
  endfacet
  facet normal 0 -1 0
    outer loop
      vertex 0.964293 -7.94167 9
      vertex -0.964293 -7.94167 9
      vertex 0.964293 -7.94167 1
    endloop
  endfacet
  facet normal 0.239316 -0.970942 0
    outer loop
      vertex 0.964293 -7.94167 9
      vertex 0.964293 -7.94167 1
      vertex 2.83684 -7.48013 1
    endloop
  endfacet
  facet normal 0.239316 -0.970942 0
    outer loop
      vertex 2.83684 -7.48013 9
      vertex 0.964293 -7.94167 9
      vertex 2.83684 -7.48013 1
    endloop
  endfacet
  facet normal 0.464723 -0.885456 0
    outer loop
      vertex 2.83684 -7.48013 9
      vertex 2.83684 -7.48013 1
      vertex 4.54452 -6.58387 1
    endloop
  endfacet
  facet normal 0.464723 -0.885456 0
    outer loop
      vertex 4.54452 -6.58387 9
      vertex 2.83684 -7.48013 9
      vertex 4.54452 -6.58387 1
    endloop
  endfacet
  facet normal 0.663123 -0.748511 0
    outer loop
      vertex 4.54452 -6.58387 9
      vertex 4.54452 -6.58387 1
      vertex 5.98809 -5.30498 1
    endloop
  endfacet
  facet normal 0.663123 -0.748511 0
    outer loop
      vertex 5.98809 -5.30498 9
      vertex 4.54452 -6.58387 9
      vertex 5.98809 -5.30498 1
    endloop
  endfacet
  facet normal 0.822984 -0.568065 0
    outer loop
      vertex 5.98809 -5.30498 9
      vertex 5.98809 -5.30498 1
      vertex 7.08365 -3.71778 1
    endloop
  endfacet
  facet normal 0.822984 -0.568065 0
    outer loop
      vertex 7.08365 -3.71778 9
      vertex 5.98809 -5.30498 9
      vertex 7.08365 -3.71778 1
    endloop
  endfacet
  facet normal 0.935016 -0.354605 0
    outer loop
      vertex 7.08365 -3.71778 9
      vertex 7.08365 -3.71778 1
      vertex 7.76753 -1.91452 1
    endloop
  endfacet
  facet normal 0.935016 -0.354605 0
    outer loop
      vertex 7.76753 -1.91452 9
      vertex 7.08365 -3.71778 9
      vertex 7.76753 -1.91452 1
    endloop
  endfacet
  facet normal 0.992709 -0.120536 0
    outer loop
      vertex 7.76753 -1.91452 9
      vertex 7.76753 -1.91452 1
      vertex 8 0 1
    endloop
  endfacet
  facet normal 0.992709 -0.120536 0
    outer loop
      vertex 8 0 9
      vertex 7.76753 -1.91452 9
      vertex 8 0 1
    endloop
  endfacet
  facet normal 0.992709 0.120536 0
    outer loop
      vertex 8 0 1
      vertex 7.76753 1.91452 1
      vertex 7.76753 1.91452 9
    endloop
  endfacet
  facet normal 0.992709 0.120536 0
    outer loop
      vertex 8 0 9
      vertex 8 0 1
      vertex 7.76753 1.91452 9
    endloop
  endfacet
  facet normal 0.935016 0.354605 0
    outer loop
      vertex 7.76753 1.91452 1
      vertex 7.08365 3.71778 1
      vertex 7.08365 3.71778 9
    endloop
  endfacet
  facet normal 0.935016 0.354605 0
    outer loop
      vertex 7.76753 1.91452 9
      vertex 7.76753 1.91452 1
      vertex 7.08365 3.71778 9
    endloop
  endfacet
  facet normal 0.822984 0.568065 0
    outer loop
      vertex 7.08365 3.71778 1
      vertex 5.98809 5.30498 1
      vertex 5.98809 5.30498 9
    endloop
  endfacet
  facet normal 0.822984 0.568065 0
    outer loop
      vertex 7.08365 3.71778 9
      vertex 7.08365 3.71778 1
      vertex 5.98809 5.30498 9
    endloop
  endfacet
  facet normal 0.663123 0.748511 0
    outer loop
      vertex 4.54452 6.58387 1
      vertex 4.54452 6.58387 9
      vertex 5.98809 5.30498 1
    endloop
  endfacet
  facet normal 0.663123 0.748511 0
    outer loop
      vertex 5.98809 5.30498 1
      vertex 4.54452 6.58387 9
      vertex 5.98809 5.30498 9
    endloop
  endfacet
  facet normal 0.464723 0.885456 0
    outer loop
      vertex 2.83684 7.48013 1
      vertex 2.83684 7.48013 9
      vertex 4.54452 6.58387 1
    endloop
  endfacet
  facet normal 0.464723 0.885456 0
    outer loop
      vertex 4.54452 6.58387 1
      vertex 2.83684 7.48013 9
      vertex 4.54452 6.58387 9
    endloop
  endfacet
  facet normal 0.239316 0.970942 0
    outer loop
      vertex 0.964293 7.94167 1
      vertex 0.964293 7.94167 9
      vertex 2.83684 7.48013 1
    endloop
  endfacet
  facet normal 0.239316 0.970942 0
    outer loop
      vertex 2.83684 7.48013 1
      vertex 0.964293 7.94167 9
      vertex 2.83684 7.48013 9
    endloop
  endfacet
  facet normal 0 1 0
    outer loop
      vertex -0.964293 7.94167 1
      vertex -0.964293 7.94167 9
      vertex 0.964293 7.94167 1
    endloop
  endfacet
  facet normal 0 1 0
    outer loop
      vertex 0.964293 7.94167 1
      vertex -0.964293 7.94167 9
      vertex 0.964293 7.94167 9
    endloop
  endfacet
  facet normal -0.239316 0.970942 0
    outer loop
      vertex -2.83684 7.48013 1
      vertex -2.83684 7.48013 9
      vertex -0.964293 7.94167 1
    endloop
  endfacet
  facet normal -0.239316 0.970942 0
    outer loop
      vertex -0.964293 7.94167 1
      vertex -2.83684 7.48013 9
      vertex -0.964293 7.94167 9
    endloop
  endfacet
  facet normal -0.464723 0.885456 0
    outer loop
      vertex -4.54452 6.58387 1
      vertex -4.54452 6.58387 9
      vertex -2.83684 7.48013 1
    endloop
  endfacet
  facet normal -0.464723 0.885456 0
    outer loop
      vertex -2.83684 7.48013 1
      vertex -4.54452 6.58387 9
      vertex -2.83684 7.48013 9
    endloop
  endfacet
  facet normal -0.663123 0.748511 0
    outer loop
      vertex -5.98809 5.30498 1
      vertex -5.98809 5.30498 9
      vertex -4.54452 6.58387 1
    endloop
  endfacet
  facet normal -0.663123 0.748511 0
    outer loop
      vertex -4.54452 6.58387 1
      vertex -5.98809 5.30498 9
      vertex -4.54452 6.58387 9
    endloop
  endfacet
  facet normal -0.822984 0.568065 0
    outer loop
      vertex -7.08365 3.71778 1
      vertex -7.08365 3.71778 9
      vertex -5.98809 5.30498 1
    endloop
  endfacet
  facet normal -0.822984 0.568065 0
    outer loop
      vertex -5.98809 5.30498 1
      vertex -7.08365 3.71778 9
      vertex -5.98809 5.30498 9
    endloop
  endfacet
  facet normal -0.935016 0.354605 0
    outer loop
      vertex -7.76753 1.91452 1
      vertex -7.76753 1.91452 9
      vertex -7.08365 3.71778 1
    endloop
  endfacet
  facet normal -0.935016 0.354605 0
    outer loop
      vertex -7.08365 3.71778 1
      vertex -7.76753 1.91452 9
      vertex -7.08365 3.71778 9
    endloop
  endfacet
  facet normal -0.992709 0.120536 0
    outer loop
      vertex -8 0 1
      vertex -8 0 9
      vertex -7.76753 1.91452 1
    endloop
  endfacet
  facet normal -0.992709 0.120536 0
    outer loop
      vertex -7.76753 1.91452 1
      vertex -8 0 9
      vertex -7.76753 1.91452 9
    endloop
  endfacet
  facet normal 0 0 1
    outer loop
      vertex -7.76753 1.91452 9
      vertex -8 0 9
      vertex -7.76753 -1.91452 9
    endloop
  endfacet
  facet normal 0 0 1
    outer loop
      vertex -5.98809 -5.30498 9
      vertex -7.76753 1.91452 9
      vertex -7.08365 -3.71778 9
    endloop
  endfacet
  facet normal 0 0 1
    outer loop
      vertex -7.08365 -3.71778 9
      vertex -7.76753 1.91452 9
      vertex -7.76753 -1.91452 9
    endloop
  endfacet
  facet normal 0 0 1
    outer loop
      vertex -4.54452 -6.58387 9
      vertex -7.76753 1.91452 9
      vertex -5.98809 -5.30498 9
    endloop
  endfacet
  facet normal 0 0 1
    outer loop
      vertex -2.83684 -7.48013 9
      vertex -7.76753 1.91452 9
      vertex -4.54452 -6.58387 9
    endloop
  endfacet
  facet normal 0 0 1
    outer loop
      vertex -0.964293 -7.94167 9
      vertex -7.76753 1.91452 9
      vertex -2.83684 -7.48013 9
    endloop
  endfacet
  facet normal 0 0 1
    outer loop
      vertex 0.964293 -7.94167 9
      vertex -7.76753 1.91452 9
      vertex -0.964293 -7.94167 9
    endloop
  endfacet
  facet normal 0 0 1
    outer loop
      vertex 2.83684 -7.48013 9
      vertex -7.76753 1.91452 9
      vertex 0.964293 -7.94167 9
    endloop
  endfacet
  facet normal 0 0 1
    outer loop
      vertex 4.54452 -6.58387 9
      vertex -7.76753 1.91452 9
      vertex 2.83684 -7.48013 9
    endloop
  endfacet
  facet normal 0 0 1
    outer loop
      vertex -4.8 0 9
      vertex -7.76753 1.91452 9
      vertex 4.54452 -6.58387 9
    endloop
  endfacet
  facet normal 0 0 1
    outer loop
      vertex -4.8 4.825 9
      vertex 5.98809 5.30498 9
      vertex 4.54452 6.58387 9
    endloop
  endfacet
  facet normal 0 0 1
    outer loop
      vertex 4.8 4.825 9
      vertex 4.8 0 9
      vertex 8 0 9
    endloop
  endfacet
  facet normal 0 0 1
    outer loop
      vertex 4.8 4.825 9
      vertex 8 0 9
      vertex 7.76753 1.91452 9
    endloop
  endfacet
  facet normal 0 0 1
    outer loop
      vertex 4.8 4.825 9
      vertex 7.76753 1.91452 9
      vertex 7.08365 3.71778 9
    endloop
  endfacet
  facet normal 0 0 1
    outer loop
      vertex -4.54452 6.58387 9
      vertex -7.76753 1.91452 9
      vertex -2.83684 7.48013 9
    endloop
  endfacet
  facet normal 0 0 1
    outer loop
      vertex -5.98809 5.30498 9
      vertex -7.76753 1.91452 9
      vertex -4.54452 6.58387 9
    endloop
  endfacet
  facet normal 0 0 1
    outer loop
      vertex -7.08365 3.71778 9
      vertex -7.76753 1.91452 9
      vertex -5.98809 5.30498 9
    endloop
  endfacet
  facet normal 0 0 1
    outer loop
      vertex 5.98809 -5.30498 9
      vertex -4.8 0 9
      vertex 4.54452 -6.58387 9
    endloop
  endfacet
  facet normal 0 0 1
    outer loop
      vertex -4.8 4.825 9
      vertex 0.964293 7.94167 9
      vertex -0.964293 7.94167 9
    endloop
  endfacet
  facet normal 0 0 1
    outer loop
      vertex -2.83684 7.48013 9
      vertex -4.8 4.825 9
      vertex -0.964293 7.94167 9
    endloop
  endfacet
  facet normal 0 0 1
    outer loop
      vertex -2.83684 7.48013 9
      vertex -7.76753 1.91452 9
      vertex -4.8 4.825 9
    endloop
  endfacet
  facet normal 0 0 1
    outer loop
      vertex 5.98809 5.30498 9
      vertex 4.8 4.825 9
      vertex 7.08365 3.71778 9
    endloop
  endfacet
  facet normal 0 0 1
    outer loop
      vertex 8 0 9
      vertex 4.8 0 9
      vertex 7.76753 -1.91452 9
    endloop
  endfacet
  facet normal 0 0 1
    outer loop
      vertex 4.8 0 9
      vertex 2.025 0 9
      vertex 7.76753 -1.91452 9
    endloop
  endfacet
  facet normal 0 0 1
    outer loop
      vertex 7.76753 -1.91452 9
      vertex 1.92589 -0.625759 9
      vertex 7.08365 -3.71778 9
    endloop
  endfacet
  facet normal 0 0 1
    outer loop
      vertex 1.92589 -0.625759 9
      vertex 1.63826 -1.19026 9
      vertex 7.08365 -3.71778 9
    endloop
  endfacet
  facet normal 0 0 1
    outer loop
      vertex 7.08365 -3.71778 9
      vertex 1.19026 -1.63826 9
      vertex 5.98809 -5.30498 9
    endloop
  endfacet
  facet normal 0 0 1
    outer loop
      vertex 1.19026 -1.63826 9
      vertex 0.625759 -1.92589 9
      vertex 5.98809 -5.30498 9
    endloop
  endfacet
  facet normal 0 0 1
    outer loop
      vertex 0.625759 -1.92589 9
      vertex 0 -2.025 9
      vertex 5.98809 -5.30498 9
    endloop
  endfacet
  facet normal 0 0 1
    outer loop
      vertex -4.8 4.825 9
      vertex 4.8 4.825 9
      vertex 5.98809 5.30498 9
    endloop
  endfacet
  facet normal 0 0 1
    outer loop
      vertex 5.98809 -5.30498 9
      vertex -0.625759 -1.92589 9
      vertex -4.8 0 9
    endloop
  endfacet
  facet normal 0 0 1
    outer loop
      vertex -4.8 4.825 9
      vertex 4.54452 6.58387 9
      vertex 2.83684 7.48013 9
    endloop
  endfacet
  facet normal 0 0 1
    outer loop
      vertex -0.625759 -1.92589 9
      vertex -1.19026 -1.63826 9
      vertex -4.8 0 9
    endloop
  endfacet
  facet normal 0 0 1
    outer loop
      vertex -4.8 4.825 9
      vertex 2.83684 7.48013 9
      vertex 0.964293 7.94167 9
    endloop
  endfacet
  facet normal 0 0 1
    outer loop
      vertex 1.63826 -1.19026 9
      vertex 1.19026 -1.63826 9
      vertex 7.08365 -3.71778 9
    endloop
  endfacet
  facet normal 0 0 1
    outer loop
      vertex 0 -2.025 9
      vertex -0.625759 -1.92589 9
      vertex 5.98809 -5.30498 9
    endloop
  endfacet
  facet normal 0 0 1
    outer loop
      vertex -1.63826 -1.19026 9
      vertex -4.8 0 9
      vertex -1.19026 -1.63826 9
    endloop
  endfacet
  facet normal 0 0 1
    outer loop
      vertex -1.92589 -0.625759 9
      vertex -4.8 0 9
      vertex -1.63826 -1.19026 9
    endloop
  endfacet
  facet normal 0 0 1
    outer loop
      vertex -2.025 0 9
      vertex -4.8 0 9
      vertex -1.92589 -0.625759 9
    endloop
  endfacet
  facet normal 0 0 1
    outer loop
      vertex 2.025 0 9
      vertex 1.92589 -0.625759 9
      vertex 7.76753 -1.91452 9
    endloop
  endfacet
  facet normal 0 0 1
    outer loop
      vertex -4.8 0 9
      vertex -4.8 4.825 9
      vertex -7.76753 1.91452 9
    endloop
  endfacet
  facet normal 0 1.22465e-16 1
    outer loop
      vertex -4.8 4.825 9
      vertex -1.92589 0.625759 9
      vertex -1.63826 1.19026 9
    endloop
  endfacet
  facet normal 0 1.22465e-16 1
    outer loop
      vertex -0.625759 1.92589 9
      vertex 4.8 4.825 9
      vertex -1.19026 1.63826 9
    endloop
  endfacet
  facet normal 0 1.22465e-16 1
    outer loop
      vertex -1.19026 1.63826 9
      vertex -4.8 4.825 9
      vertex -1.63826 1.19026 9
    endloop
  endfacet
  facet normal 0 1.22465e-16 1
    outer loop
      vertex -2.025 0 9
      vertex -1.92589 0.625759 9
      vertex -4.8 4.825 9
    endloop
  endfacet
  facet normal 0 1.22465e-16 1
    outer loop
      vertex 0 2.025 9
      vertex 4.8 4.825 9
      vertex -0.625759 1.92589 9
    endloop
  endfacet
  facet normal 0 1.22465e-16 1
    outer loop
      vertex 0.625759 1.92589 9
      vertex 4.8 4.825 9
      vertex 0 2.025 9
    endloop
  endfacet
  facet normal 0 1.22465e-16 1
    outer loop
      vertex 1.19026 1.63826 9
      vertex 4.8 0 9
      vertex 0.625759 1.92589 9
    endloop
  endfacet
  facet normal 0 1.22465e-16 1
    outer loop
      vertex 1.63826 1.19026 9
      vertex 4.8 0 9
      vertex 1.19026 1.63826 9
    endloop
  endfacet
  facet normal 0 1.22465e-16 1
    outer loop
      vertex 1.92589 0.625759 9
      vertex 4.8 0 9
      vertex 1.63826 1.19026 9
    endloop
  endfacet
  facet normal 0 1.22465e-16 1
    outer loop
      vertex 2.025 0 9
      vertex 4.8 0 9
      vertex 1.92589 0.625759 9
    endloop
  endfacet
  facet normal 0 1.22465e-16 1
    outer loop
      vertex 4.8 0 9
      vertex 4.8 4.825 9
      vertex 0.625759 1.92589 9
    endloop
  endfacet
  facet normal 0 1.22465e-16 1
    outer loop
      vertex 4.8 4.825 9
      vertex -4.8 4.825 9
      vertex -1.19026 1.63826 9
    endloop
  endfacet
  facet normal 0 1.22465e-16 1
    outer loop
      vertex -4.8 4.825 9
      vertex -4.8 0 9
      vertex -2.025 0 9
    endloop
  endfacet
  facet normal 0.987688 -0.156435 1.91578e-17
    outer loop
      vertex -1.94581 0.5 2.37
      vertex -1.94581 0.5 1
      vertex -1.92589 0.625759 1
    endloop
  endfacet
  facet normal 0.987688 -0.156435 1.91578e-17
    outer loop
      vertex -2.025 0 9
      vertex -1.94581 0.5 2.37
      vertex -1.92589 0.625759 9
    endloop
  endfacet
  facet normal 0.987688 -0.156435 1.91578e-17
    outer loop
      vertex -1.92589 0.625759 9
      vertex -1.94581 0.5 2.37
      vertex -1.92589 0.625759 1
    endloop
  endfacet
  facet normal 0.987688 -0.156435 1.91578e-17
    outer loop
      vertex -2.025 -8.11941e-16 2.37
      vertex -1.94581 0.5 2.37
      vertex -2.025 0 9
    endloop
  endfacet
  facet normal 0.987688 0.156435 -1.91578e-17
    outer loop
      vertex -2.025 0 9
      vertex -1.92589 -0.625759 9
      vertex -1.92589 -0.625759 1
    endloop
  endfacet
  facet normal 0.987688 0.156435 -1.91578e-17
    outer loop
      vertex -1.94581 -0.5 2.37
      vertex -2.025 0 9
      vertex -1.92589 -0.625759 1
    endloop
  endfacet
  facet normal 0.987688 0.156435 -1.91578e-17
    outer loop
      vertex -1.94581 -0.5 1
      vertex -1.94581 -0.5 2.37
      vertex -1.92589 -0.625759 1
    endloop
  endfacet
  facet normal 0.987688 0.156435 -1.91578e-17
    outer loop
      vertex -1.94581 -0.5 2.37
      vertex -2.025 -8.11941e-16 2.37
      vertex -2.025 0 9
    endloop
  endfacet
  facet normal 0.891007 0.45399 -5.55978e-17
    outer loop
      vertex -1.92589 -0.625759 9
      vertex -1.63826 -1.19026 9
      vertex -1.63826 -1.19027 1
    endloop
  endfacet
  facet normal 0.891007 0.45399 -5.55978e-17
    outer loop
      vertex -1.92589 -0.625759 1
      vertex -1.92589 -0.625759 9
      vertex -1.63826 -1.19027 1
    endloop
  endfacet
  facet normal 0.707107 0.707107 -8.65956e-17
    outer loop
      vertex -1.63826 -1.19026 9
      vertex -1.19026 -1.63826 9
      vertex -1.19026 -1.63826 1
    endloop
  endfacet
  facet normal 0.707107 0.707107 -8.65956e-17
    outer loop
      vertex -1.63826 -1.19027 1
      vertex -1.63826 -1.19026 9
      vertex -1.19026 -1.63826 1
    endloop
  endfacet
  facet normal 0.45399 0.891007 -1.09117e-16
    outer loop
      vertex -0.625759 -1.92589 9
      vertex -0.625759 -1.92589 1
      vertex -1.19026 -1.63826 9
    endloop
  endfacet
  facet normal 0.45399 0.891007 -1.09117e-16
    outer loop
      vertex -1.19026 -1.63826 9
      vertex -0.625759 -1.92589 1
      vertex -1.19026 -1.63826 1
    endloop
  endfacet
  facet normal 0.156435 0.987688 -1.20957e-16
    outer loop
      vertex 0 -2.025 9
      vertex 0 -2.025 1
      vertex -0.625759 -1.92589 9
    endloop
  endfacet
  facet normal 0.156435 0.987688 -1.20957e-16
    outer loop
      vertex -0.625759 -1.92589 9
      vertex 0 -2.025 1
      vertex -0.625759 -1.92589 1
    endloop
  endfacet
  facet normal -0.156435 0.987688 -1.20957e-16
    outer loop
      vertex 0.625759 -1.92589 9
      vertex 0.625759 -1.92589 1
      vertex 0 -2.025 9
    endloop
  endfacet
  facet normal -0.156435 0.987688 -1.20957e-16
    outer loop
      vertex 0 -2.025 9
      vertex 0.625759 -1.92589 1
      vertex 0 -2.025 1
    endloop
  endfacet
  facet normal -0.45399 0.891007 -1.09117e-16
    outer loop
      vertex 1.19026 -1.63826 9
      vertex 1.19026 -1.63826 1
      vertex 0.625759 -1.92589 9
    endloop
  endfacet
  facet normal -0.45399 0.891007 -1.09117e-16
    outer loop
      vertex 0.625759 -1.92589 9
      vertex 1.19026 -1.63826 1
      vertex 0.625759 -1.92589 1
    endloop
  endfacet
  facet normal -0.707107 0.707107 -8.65956e-17
    outer loop
      vertex 1.63826 -1.19026 9
      vertex 1.63826 -1.19027 1
      vertex 1.19026 -1.63826 9
    endloop
  endfacet
  facet normal -0.707107 0.707107 -8.65956e-17
    outer loop
      vertex 1.19026 -1.63826 9
      vertex 1.63826 -1.19027 1
      vertex 1.19026 -1.63826 1
    endloop
  endfacet
  facet normal -0.891007 0.45399 -5.55978e-17
    outer loop
      vertex 1.92589 -0.625759 9
      vertex 1.92589 -0.625759 1
      vertex 1.63826 -1.19026 9
    endloop
  endfacet
  facet normal -0.891007 0.45399 -5.55978e-17
    outer loop
      vertex 1.63826 -1.19026 9
      vertex 1.92589 -0.625759 1
      vertex 1.63826 -1.19027 1
    endloop
  endfacet
  facet normal -0.987688 0.156435 -1.91578e-17
    outer loop
      vertex 2.025 0 9
      vertex 2.025 -8.11941e-16 2.37
      vertex 1.92589 -0.625759 9
    endloop
  endfacet
  facet normal -0.987688 0.156435 -1.91578e-17
    outer loop
      vertex 1.92589 -0.625759 9
      vertex 2.025 -8.11941e-16 2.37
      vertex 1.94581 -0.5 2.37
    endloop
  endfacet
  facet normal -0.987688 0.156435 -1.91578e-17
    outer loop
      vertex 1.92589 -0.625759 9
      vertex 1.94581 -0.5 2.37
      vertex 1.94581 -0.5 1
    endloop
  endfacet
  facet normal -0.987688 0.156435 -1.91578e-17
    outer loop
      vertex 1.92589 -0.625759 9
      vertex 1.94581 -0.5 1
      vertex 1.92589 -0.625759 1
    endloop
  endfacet
  facet normal -0.987688 -0.156435 1.91578e-17
    outer loop
      vertex 1.94581 0.5 2.37
      vertex 2.025 -8.11941e-16 2.37
      vertex 2.025 0 9
    endloop
  endfacet
  facet normal -0.987688 -0.156435 1.91578e-17
    outer loop
      vertex 1.94581 0.5 2.37
      vertex 2.025 0 9
      vertex 1.92589 0.625759 9
    endloop
  endfacet
  facet normal -0.987688 -0.156435 1.91578e-17
    outer loop
      vertex 1.94581 0.5 2.37
      vertex 1.92589 0.625759 9
      vertex 1.94581 0.5 1
    endloop
  endfacet
  facet normal -0.987688 -0.156435 1.91578e-17
    outer loop
      vertex 1.92589 0.625759 9
      vertex 1.92589 0.625759 1
      vertex 1.94581 0.5 1
    endloop
  endfacet
  facet normal -0.891007 -0.45399 5.55978e-17
    outer loop
      vertex 1.92589 0.625759 9
      vertex 1.63826 1.19026 9
      vertex 1.92589 0.625759 1
    endloop
  endfacet
  facet normal -0.891007 -0.45399 5.55978e-17
    outer loop
      vertex 1.92589 0.625759 1
      vertex 1.63826 1.19026 9
      vertex 1.63826 1.19026 1
    endloop
  endfacet
  facet normal -0.707107 -0.707107 8.65956e-17
    outer loop
      vertex 1.63826 1.19026 9
      vertex 1.19026 1.63826 9
      vertex 1.63826 1.19026 1
    endloop
  endfacet
  facet normal -0.707107 -0.707107 8.65956e-17
    outer loop
      vertex 1.63826 1.19026 1
      vertex 1.19026 1.63826 9
      vertex 1.19026 1.63826 1
    endloop
  endfacet
  facet normal -0.45399 -0.891007 1.09117e-16
    outer loop
      vertex 1.19026 1.63826 1
      vertex 1.19026 1.63826 9
      vertex 0.625759 1.92589 9
    endloop
  endfacet
  facet normal -0.45399 -0.891007 1.09117e-16
    outer loop
      vertex 0.625759 1.92589 1
      vertex 1.19026 1.63826 1
      vertex 0.625759 1.92589 9
    endloop
  endfacet
  facet normal -0.156435 -0.987688 1.20957e-16
    outer loop
      vertex 0.625759 1.92589 1
      vertex 0.625759 1.92589 9
      vertex 0 2.025 9
    endloop
  endfacet
  facet normal -0.156435 -0.987688 1.20957e-16
    outer loop
      vertex 0 2.025 1
      vertex 0.625759 1.92589 1
      vertex 0 2.025 9
    endloop
  endfacet
  facet normal 0.156435 -0.987688 1.20957e-16
    outer loop
      vertex 0 2.025 1
      vertex 0 2.025 9
      vertex -0.625759 1.92589 9
    endloop
  endfacet
  facet normal 0.156435 -0.987688 1.20957e-16
    outer loop
      vertex -0.625759 1.92589 1
      vertex 0 2.025 1
      vertex -0.625759 1.92589 9
    endloop
  endfacet
  facet normal 0.45399 -0.891007 1.09117e-16
    outer loop
      vertex -0.625759 1.92589 1
      vertex -0.625759 1.92589 9
      vertex -1.19026 1.63826 9
    endloop
  endfacet
  facet normal 0.45399 -0.891007 1.09117e-16
    outer loop
      vertex -1.19026 1.63826 1
      vertex -0.625759 1.92589 1
      vertex -1.19026 1.63826 9
    endloop
  endfacet
  facet normal 0.707107 -0.707107 8.65956e-17
    outer loop
      vertex -1.19026 1.63826 1
      vertex -1.19026 1.63826 9
      vertex -1.63826 1.19026 9
    endloop
  endfacet
  facet normal 0.707107 -0.707107 8.65956e-17
    outer loop
      vertex -1.63826 1.19026 1
      vertex -1.19026 1.63826 1
      vertex -1.63826 1.19026 9
    endloop
  endfacet
  facet normal 0.891007 -0.45399 5.55978e-17
    outer loop
      vertex -1.63826 1.19026 1
      vertex -1.63826 1.19026 9
      vertex -1.92589 0.625759 9
    endloop
  endfacet
  facet normal 0.891007 -0.45399 5.55978e-17
    outer loop
      vertex -1.92589 0.625759 1
      vertex -1.63826 1.19026 1
      vertex -1.92589 0.625759 9
    endloop
  endfacet
  facet normal 0 1.22465e-16 1
    outer loop
      vertex -1.94581 0.5 2.37
      vertex -2.025 -8.11941e-16 2.37
      vertex -1.94581 -0.5 2.37
    endloop
  endfacet
  facet normal 0 1.22465e-16 1
    outer loop
      vertex 2.025 -8.11941e-16 2.37
      vertex -1.94581 0.5 2.37
      vertex 1.94581 -0.5 2.37
    endloop
  endfacet
  facet normal 0 1.22465e-16 1
    outer loop
      vertex 1.94581 -0.5 2.37
      vertex -1.94581 0.5 2.37
      vertex -1.94581 -0.5 2.37
    endloop
  endfacet
  facet normal 0 1.22465e-16 1
    outer loop
      vertex 1.94581 0.5 2.37
      vertex -1.94581 0.5 2.37
      vertex 2.025 -8.11941e-16 2.37
    endloop
  endfacet
  facet normal 0 1 -1.22465e-16
    outer loop
      vertex -1.94581 0.5 1
      vertex -1.94581 0.5 2.37
      vertex 1.94581 0.5 1
    endloop
  endfacet
  facet normal 0 1 -1.22465e-16
    outer loop
      vertex 1.94581 0.5 1
      vertex -1.94581 0.5 2.37
      vertex 1.94581 0.5 2.37
    endloop
  endfacet
  facet normal 0 0 1
    outer loop
      vertex -1.92589 0.625759 1
      vertex -1.94581 0.5 1
      vertex 1.94581 0.5 1
    endloop
  endfacet
  facet normal 0 0 1
    outer loop
      vertex 1.63826 1.19026 1
      vertex -1.92589 0.625759 1
      vertex 1.92589 0.625759 1
    endloop
  endfacet
  facet normal 0 0 1
    outer loop
      vertex 1.92589 0.625759 1
      vertex -1.92589 0.625759 1
      vertex 1.94581 0.5 1
    endloop
  endfacet
  facet normal 0 0 1
    outer loop
      vertex 1.19026 1.63826 1
      vertex -1.92589 0.625759 1
      vertex 1.63826 1.19026 1
    endloop
  endfacet
  facet normal 0 0 1
    outer loop
      vertex 0.625759 1.92589 1
      vertex -1.92589 0.625759 1
      vertex 1.19026 1.63826 1
    endloop
  endfacet
  facet normal 0 0 1
    outer loop
      vertex 0 2.025 1
      vertex -1.92589 0.625759 1
      vertex 0.625759 1.92589 1
    endloop
  endfacet
  facet normal 0 0 1
    outer loop
      vertex -0.625759 1.92589 1
      vertex -1.92589 0.625759 1
      vertex 0 2.025 1
    endloop
  endfacet
  facet normal 0 0 1
    outer loop
      vertex -1.19026 1.63826 1
      vertex -1.92589 0.625759 1
      vertex -0.625759 1.92589 1
    endloop
  endfacet
  facet normal 0 0 1
    outer loop
      vertex -1.63826 1.19026 1
      vertex -1.92589 0.625759 1
      vertex -1.19026 1.63826 1
    endloop
  endfacet
  facet normal 0 -1 1.22465e-16
    outer loop
      vertex -1.94581 -0.5 2.37
      vertex -1.94581 -0.5 1
      vertex 1.94581 -0.5 1
    endloop
  endfacet
  facet normal 0 -1 1.22465e-16
    outer loop
      vertex 1.94581 -0.5 2.37
      vertex -1.94581 -0.5 2.37
      vertex 1.94581 -0.5 1
    endloop
  endfacet
  facet normal 0 0 1
    outer loop
      vertex 1.94581 -0.5 1
      vertex -1.94581 -0.5 1
      vertex -1.92589 -0.625759 1
    endloop
  endfacet
  facet normal 0 0 1
    outer loop
      vertex -1.19026 -1.63826 1
      vertex 1.94581 -0.5 1
      vertex -1.63826 -1.19027 1
    endloop
  endfacet
  facet normal 0 0 1
    outer loop
      vertex -1.63826 -1.19027 1
      vertex 1.94581 -0.5 1
      vertex -1.92589 -0.625759 1
    endloop
  endfacet
  facet normal 0 0 1
    outer loop
      vertex -0.625759 -1.92589 1
      vertex 1.94581 -0.5 1
      vertex -1.19026 -1.63826 1
    endloop
  endfacet
  facet normal 0 0 1
    outer loop
      vertex 0 -2.025 1
      vertex 1.94581 -0.5 1
      vertex -0.625759 -1.92589 1
    endloop
  endfacet
  facet normal 0 0 1
    outer loop
      vertex 0.625759 -1.92589 1
      vertex 1.94581 -0.5 1
      vertex 0 -2.025 1
    endloop
  endfacet
  facet normal 0 0 1
    outer loop
      vertex 1.19026 -1.63826 1
      vertex 1.94581 -0.5 1
      vertex 0.625759 -1.92589 1
    endloop
  endfacet
  facet normal 0 0 1
    outer loop
      vertex 1.63826 -1.19027 1
      vertex 1.94581 -0.5 1
      vertex 1.19026 -1.63826 1
    endloop
  endfacet
  facet normal 0 0 1
    outer loop
      vertex 1.92589 -0.625759 1
      vertex 1.94581 -0.5 1
      vertex 1.63826 -1.19027 1
    endloop
  endfacet
endsolid OpenSCAD_Model
