solid OpenSCAD_Model
  facet normal -1 0 0
    outer loop
      vertex -10 -66.6667 -10
      vertex -10 -66.6667 10
      vertex -10 -36.6667 -10
    endloop
  endfacet
  facet normal -1 0 0
    outer loop
      vertex -10 -36.6667 -10
      vertex -10 -66.6667 10
      vertex -10 -36.6667 10
    endloop
  endfacet
  facet normal 0 -1 0
    outer loop
      vertex -10 -66.6667 10
      vertex -10 -66.6667 -10
      vertex 10 -66.6667 -10
    endloop
  endfacet
  facet normal 0 -1 0
    outer loop
      vertex 10 -66.6667 10
      vertex -10 -66.6667 10
      vertex 10 -66.6667 -10
    endloop
  endfacet
  facet normal 0 0 -1
    outer loop
      vertex -10 -66.6667 -10
      vertex -10 -36.6667 -10
      vertex 10 -66.6667 -10
    endloop
  endfacet
  facet normal 0 0 -1
    outer loop
      vertex 10 -66.6667 -10
      vertex -10 -36.6667 -10
      vertex -5 -36.6667 -10
    endloop
  endfacet
  facet normal 0 0 -1
    outer loop
      vertex 5 -36.6667 -10
      vertex -5 -36.6667 -10
      vertex -5 63.3333 -10
    endloop
  endfacet
  facet normal 0 0 -1
    outer loop
      vertex 10 -66.6667 -10
      vertex -5 -36.6667 -10
      vertex 5 -36.6667 -10
    endloop
  endfacet
  facet normal 0 0 -1
    outer loop
      vertex 10 -36.6667 -10
      vertex 10 -66.6667 -10
      vertex 5 -36.6667 -10
    endloop
  endfacet
  facet normal 0 0 -1
    outer loop
      vertex 5 -36.6667 -10
      vertex -5 63.3333 -10
      vertex 5 63.3333 -10
    endloop
  endfacet
  facet normal 0 1 0
    outer loop
      vertex -10 -36.6667 -10
      vertex -10 -36.6667 10
      vertex -5 -36.6667 -10
    endloop
  endfacet
  facet normal 0 1 0
    outer loop
      vertex -5 -36.6667 0
      vertex -10 -36.6667 10
      vertex 10 -36.6667 10
    endloop
  endfacet
  facet normal 0 1 0
    outer loop
      vertex 5 -36.6667 -10
      vertex 10 -36.6667 10
      vertex 10 -36.6667 -10
    endloop
  endfacet
  facet normal 0 1 0
    outer loop
      vertex 5 -36.6667 0
      vertex 10 -36.6667 10
      vertex 5 -36.6667 -10
    endloop
  endfacet
  facet normal 0 1 0
    outer loop
      vertex -5 -36.6667 -10
      vertex -10 -36.6667 10
      vertex -5 -36.6667 0
    endloop
  endfacet
  facet normal 0 1 0
    outer loop
      vertex -5 -36.6667 0
      vertex 10 -36.6667 10
      vertex 5 -36.6667 0
    endloop
  endfacet
  facet normal 0 0 1
    outer loop
      vertex -10 -36.6667 10
      vertex -10 -66.6667 10
      vertex 10 -66.6667 10
    endloop
  endfacet
  facet normal 0 0 1
    outer loop
      vertex 10 -36.6667 10
      vertex -10 -36.6667 10
      vertex 10 -66.6667 10
    endloop
  endfacet
  facet normal 1 0 0
    outer loop
      vertex 10 -66.6667 10
      vertex 10 -66.6667 -10
      vertex 10 -36.6667 -10
    endloop
  endfacet
  facet normal 1 0 0
    outer loop
      vertex 10 -36.6667 10
      vertex 10 -66.6667 10
      vertex 10 -36.6667 -10
    endloop
  endfacet
  facet normal 1 0 0
    outer loop
      vertex 5 -36.6667 0
      vertex 5 -36.6667 -10
      vertex 5 63.3333 -10
    endloop
  endfacet
  facet normal 1 0 0
    outer loop
      vertex 5 63.3333 0
      vertex 5 -36.6667 0
      vertex 5 63.3333 -10
    endloop
  endfacet
  facet normal 0 1 0
    outer loop
      vertex -5 63.3333 -10
      vertex -5 63.3333 0
      vertex 5 63.3333 -10
    endloop
  endfacet
  facet normal 0 1 0
    outer loop
      vertex 5 63.3333 -10
      vertex -5 63.3333 0
      vertex 5 63.3333 0
    endloop
  endfacet
  facet normal -1 0 0
    outer loop
      vertex -5 -36.6667 -10
      vertex -5 -36.6667 0
      vertex -5 63.3333 -10
    endloop
  endfacet
  facet normal -1 0 0
    outer loop
      vertex -5 63.3333 -10
      vertex -5 -36.6667 0
      vertex -5 63.3333 0
    endloop
  endfacet
  facet normal 0 0 1
    outer loop
      vertex -5 63.3333 0
      vertex -5 -36.6667 0
      vertex 5 -36.6667 0
    endloop
  endfacet
  facet normal 0 0 1
    outer loop
      vertex 5 63.3333 0
      vertex -5 63.3333 0
      vertex 5 -36.6667 0
    endloop
  endfacet
  facet normal -1 0 0
    outer loop
      vertex 15 -66.6667 -10
      vertex 15 -66.6667 10
      vertex 15 -36.6667 -10
    endloop
  endfacet
  facet normal -1 0 0
    outer loop
      vertex 15 -36.6667 -10
      vertex 15 -66.6667 10
      vertex 15 -36.6667 10
    endloop
  endfacet
  facet normal 0 -1 0
    outer loop
      vertex 15 -66.6667 10
      vertex 15 -66.6667 -10
      vertex 35 -66.6667 -10
    endloop
  endfacet
  facet normal 0 -1 0
    outer loop
      vertex 35 -66.6667 10
      vertex 15 -66.6667 10
      vertex 35 -66.6667 -10
    endloop
  endfacet
  facet normal 0 0 -1
    outer loop
      vertex 15 -66.6667 -10
      vertex 15 -36.6667 -10
      vertex 35 -66.6667 -10
    endloop
  endfacet
  facet normal 0 0 -1
    outer loop
      vertex 35 -66.6667 -10
      vertex 15 -36.6667 -10
      vertex 20 -36.6667 -10
    endloop
  endfacet
  facet normal 0 0 -1
    outer loop
      vertex 30 -36.6667 -10
      vertex 20 -36.6667 -10
      vertex 20 63.3333 -10
    endloop
  endfacet
  facet normal 0 0 -1
    outer loop
      vertex 35 -66.6667 -10
      vertex 20 -36.6667 -10
      vertex 30 -36.6667 -10
    endloop
  endfacet
  facet normal 0 0 -1
    outer loop
      vertex 35 -36.6667 -10
      vertex 35 -66.6667 -10
      vertex 30 -36.6667 -10
    endloop
  endfacet
  facet normal 0 0 -1
    outer loop
      vertex 30 -36.6667 -10
      vertex 20 63.3333 -10
      vertex 30 63.3333 -10
    endloop
  endfacet
  facet normal 0 1 0
    outer loop
      vertex 15 -36.6667 -10
      vertex 15 -36.6667 10
      vertex 20 -36.6667 -10
    endloop
  endfacet
  facet normal 0 1 0
    outer loop
      vertex 20 -36.6667 0
      vertex 15 -36.6667 10
      vertex 35 -36.6667 10
    endloop
  endfacet
  facet normal 0 1 0
    outer loop
      vertex 30 -36.6667 -10
      vertex 35 -36.6667 10
      vertex 35 -36.6667 -10
    endloop
  endfacet
  facet normal 0 1 0
    outer loop
      vertex 30 -36.6667 0
      vertex 35 -36.6667 10
      vertex 30 -36.6667 -10
    endloop
  endfacet
  facet normal 0 1 0
    outer loop
      vertex 20 -36.6667 -10
      vertex 15 -36.6667 10
      vertex 20 -36.6667 0
    endloop
  endfacet
  facet normal 0 1 0
    outer loop
      vertex 20 -36.6667 0
      vertex 35 -36.6667 10
      vertex 30 -36.6667 0
    endloop
  endfacet
  facet normal 0 0 1
    outer loop
      vertex 15 -36.6667 10
      vertex 15 -66.6667 10
      vertex 35 -66.6667 10
    endloop
  endfacet
  facet normal 0 0 1
    outer loop
      vertex 35 -36.6667 10
      vertex 15 -36.6667 10
      vertex 35 -66.6667 10
    endloop
  endfacet
  facet normal 1 0 0
    outer loop
      vertex 35 -66.6667 10
      vertex 35 -66.6667 -10
      vertex 35 -36.6667 -10
    endloop
  endfacet
  facet normal 1 0 0
    outer loop
      vertex 35 -36.6667 10
      vertex 35 -66.6667 10
      vertex 35 -36.6667 -10
    endloop
  endfacet
  facet normal 1 0 0
    outer loop
      vertex 30 -36.6667 0
      vertex 30 -36.6667 -10
      vertex 30 63.3333 -10
    endloop
  endfacet
  facet normal 1 0 0
    outer loop
      vertex 30 63.3333 0
      vertex 30 -36.6667 0
      vertex 30 63.3333 -10
    endloop
  endfacet
  facet normal 0 1 0
    outer loop
      vertex 20 63.3333 -10
      vertex 20 63.3333 0
      vertex 30 63.3333 -10
    endloop
  endfacet
  facet normal 0 1 0
    outer loop
      vertex 30 63.3333 -10
      vertex 20 63.3333 0
      vertex 30 63.3333 0
    endloop
  endfacet
  facet normal -1 0 0
    outer loop
      vertex 20 -36.6667 -10
      vertex 20 -36.6667 0
      vertex 20 63.3333 -10
    endloop
  endfacet
  facet normal -1 0 0
    outer loop
      vertex 20 63.3333 -10
      vertex 20 -36.6667 0
      vertex 20 63.3333 0
    endloop
  endfacet
  facet normal 0 0 1
    outer loop
      vertex 20 63.3333 0
      vertex 20 -36.6667 0
      vertex 30 -36.6667 0
    endloop
  endfacet
  facet normal 0 0 1
    outer loop
      vertex 30 63.3333 0
      vertex 20 63.3333 0
      vertex 30 -36.6667 0
    endloop
  endfacet
  facet normal -1 0 0
    outer loop
      vertex -35 -66.6667 -10
      vertex -35 -66.6667 10
      vertex -35 -36.6667 -10
    endloop
  endfacet
  facet normal -1 0 0
    outer loop
      vertex -35 -36.6667 -10
      vertex -35 -66.6667 10
      vertex -35 -36.6667 10
    endloop
  endfacet
  facet normal 0 -1 0
    outer loop
      vertex -35 -66.6667 10
      vertex -35 -66.6667 -10
      vertex -15 -66.6667 -10
    endloop
  endfacet
  facet normal 0 -1 0
    outer loop
      vertex -15 -66.6667 10
      vertex -35 -66.6667 10
      vertex -15 -66.6667 -10
    endloop
  endfacet
  facet normal 0 0 -1
    outer loop
      vertex -35 -66.6667 -10
      vertex -35 -36.6667 -10
      vertex -15 -66.6667 -10
    endloop
  endfacet
  facet normal 0 0 -1
    outer loop
      vertex -15 -66.6667 -10
      vertex -35 -36.6667 -10
      vertex -30 -36.6667 -10
    endloop
  endfacet
  facet normal 0 0 -1
    outer loop
      vertex -20 -36.6667 -10
      vertex -30 -36.6667 -10
      vertex -30 63.3333 -10
    endloop
  endfacet
  facet normal 0 0 -1
    outer loop
      vertex -15 -66.6667 -10
      vertex -30 -36.6667 -10
      vertex -20 -36.6667 -10
    endloop
  endfacet
  facet normal 0 0 -1
    outer loop
      vertex -15 -36.6667 -10
      vertex -15 -66.6667 -10
      vertex -20 -36.6667 -10
    endloop
  endfacet
  facet normal 0 0 -1
    outer loop
      vertex -20 -36.6667 -10
      vertex -30 63.3333 -10
      vertex -20 63.3333 -10
    endloop
  endfacet
  facet normal 0 1 0
    outer loop
      vertex -35 -36.6667 -10
      vertex -35 -36.6667 10
      vertex -30 -36.6667 -10
    endloop
  endfacet
  facet normal 0 1 0
    outer loop
      vertex -30 -36.6667 0
      vertex -35 -36.6667 10
      vertex -15 -36.6667 10
    endloop
  endfacet
  facet normal 0 1 0
    outer loop
      vertex -20 -36.6667 -10
      vertex -15 -36.6667 10
      vertex -15 -36.6667 -10
    endloop
  endfacet
  facet normal 0 1 0
    outer loop
      vertex -20 -36.6667 0
      vertex -15 -36.6667 10
      vertex -20 -36.6667 -10
    endloop
  endfacet
  facet normal 0 1 0
    outer loop
      vertex -30 -36.6667 -10
      vertex -35 -36.6667 10
      vertex -30 -36.6667 0
    endloop
  endfacet
  facet normal 0 1 0
    outer loop
      vertex -30 -36.6667 0
      vertex -15 -36.6667 10
      vertex -20 -36.6667 0
    endloop
  endfacet
  facet normal 0 0 1
    outer loop
      vertex -35 -36.6667 10
      vertex -35 -66.6667 10
      vertex -15 -66.6667 10
    endloop
  endfacet
  facet normal 0 0 1
    outer loop
      vertex -15 -36.6667 10
      vertex -35 -36.6667 10
      vertex -15 -66.6667 10
    endloop
  endfacet
  facet normal 1 0 0
    outer loop
      vertex -15 -66.6667 10
      vertex -15 -66.6667 -10
      vertex -15 -36.6667 -10
    endloop
  endfacet
  facet normal 1 0 0
    outer loop
      vertex -15 -36.6667 10
      vertex -15 -66.6667 10
      vertex -15 -36.6667 -10
    endloop
  endfacet
  facet normal 1 0 0
    outer loop
      vertex -20 -36.6667 0
      vertex -20 -36.6667 -10
      vertex -20 63.3333 -10
    endloop
  endfacet
  facet normal 1 0 0
    outer loop
      vertex -20 63.3333 0
      vertex -20 -36.6667 0
      vertex -20 63.3333 -10
    endloop
  endfacet
  facet normal 0 1 0
    outer loop
      vertex -30 63.3333 -10
      vertex -30 63.3333 0
      vertex -20 63.3333 -10
    endloop
  endfacet
  facet normal 0 1 0
    outer loop
      vertex -20 63.3333 -10
      vertex -30 63.3333 0
      vertex -20 63.3333 0
    endloop
  endfacet
  facet normal -1 0 0
    outer loop
      vertex -30 -36.6667 -10
      vertex -30 -36.6667 0
      vertex -30 63.3333 -10
    endloop
  endfacet
  facet normal -1 0 0
    outer loop
      vertex -30 63.3333 -10
      vertex -30 -36.6667 0
      vertex -30 63.3333 0
    endloop
  endfacet
  facet normal 0 0 1
    outer loop
      vertex -30 63.3333 0
      vertex -30 -36.6667 0
      vertex -20 -36.6667 0
    endloop
  endfacet
  facet normal 0 0 1
    outer loop
      vertex -20 63.3333 0
      vertex -30 63.3333 0
      vertex -20 -36.6667 0
    endloop
  endfacet
endsolid OpenSCAD_Model
